<svg id="Capa_3" data-name="Capa 3" xmlns="http://www.w3.org/2000/svg" viewBox="0 0 321 1138"><defs><style>.cls-1{fill:#dbf6ff;}</style></defs><title>fondo-5</title><path class="cls-1" d="M1920,0s-174.16,5.83-295.36,194.71A128.57,128.57,0,0,0,1608,226.17c-15.28,41.9-7.25,83-4,96.78,5.23,15.17,14.92,38.29,32.32,60.62,6.17,7.93,21.54,26.31,45.58,40.42a130.21,130.21,0,0,0,55,17.88c9.79,3.94,51.72,22.34,72.72,77,4.28,11.14,14.47,38.57,10.77,74.62-5.07,49.4-32.37,77.79-38.6,83.95l-48.48,61.79a353,353,0,0,0-29.4,42.56c-6.84,11.65-11.42,19.56-15.71,31.22a164.74,164.74,0,0,0-9.65,49.81c1.11,20.52,0,45.62,8.07,70,2.7,8.17,11.68,51.31,11.68,51.31s42.19,123.58,110.42,146.9S1920,1112.28,1920,1112.28Z" transform="translate(-1599 0.02)"/></svg>