<svg id="Capa_4" data-name="Capa 4" xmlns="http://www.w3.org/2000/svg" viewBox="0 0 373.41 996.96"><defs><style>.cls-1{fill:#dbf6ff;}</style></defs><title>fondo-7</title><path class="cls-1" d="M0,55.22S202.6,60.33,343.58,225.8a107.18,107.18,0,0,1,19.32,27.57c17.77,36.71,8.44,72.71,4.7,84.78A175.42,175.42,0,0,1,330,391.27a183.2,183.2,0,0,1-53,35.41,189,189,0,0,1-64,15.66c-11.38,3.45-60.16,19.57-84.59,67.41-5,9.76-16.83,33.79-12.53,65.37,5.89,43.28,37.66,68.15,44.9,73.55l56.4,54.13a327.69,327.69,0,0,1,34.2,37.28c8,10.21,13.28,17.14,18.27,27.35a113.55,113.55,0,0,1,11.23,43.64c-1.29,18-.06,40-9.4,61.29C268.39,879.51,258,917.3,258,917.3S208.86,1025.57,129.5,1046,0,1029.66,0,1029.66Z" transform="translate(0 -55.22)"/></svg>