<svg id="Capa_4" data-name="Capa 4" xmlns="http://www.w3.org/2000/svg" viewBox="0 0 277.56 282.54"><defs><style>.cls-1{fill:#dbf6ff;}</style></defs><title>fondo-6</title><path class="cls-1" d="M1701,908.43c-27.6,2-45.49-8.26-45.49-8.26-7.94-4.57-18.19-10.47-22.85-22.6a29.8,29.8,0,0,1-1.53-18.41c.71-2.74,3.61-12.32,13.46-17.47,10.85-5.68,21.39-1.41,22.83-.8a45.87,45.87,0,0,1,6.35-11.07,33.2,33.2,0,0,1,10.14-9.41,24.66,24.66,0,0,1,11.67-3.66,24,24,0,0,1,15.12,4.74c1.22.93,4.88,3.91,8.14,11.4,5,11.53,4.35,22.91,3.27,29.81,0,0-1,14.51-12.53,39.57a10.56,10.56,0,0,1-3.79,4.67A10,10,0,0,1,1701,908.43Z" transform="translate(-1591.13 -769.99)"/><ellipse class="cls-1" cx="1609.2" cy="852.16" rx="14.78" ry="18.48" transform="translate(-1343.97 1290.71) rotate(-69.49)"/><ellipse class="cls-1" cx="1710.45" cy="797.61" rx="14.78" ry="18.48" transform="matrix(0.99, -0.14, 0.14, 0.99, -1686.85, -519.7)"/><ellipse class="cls-1" cx="1669.09" cy="792.4" rx="18.31" ry="23.25" transform="translate(-1769.67 29.22) rotate(-25.61)"/><ellipse class="cls-1" cx="1628.27" cy="815.23" rx="18.31" ry="23.25" transform="translate(-1747.64 406.4) rotate(-38.04)"/><path class="cls-1" d="M1850,947.51c-20,1.48-33-6-33-6-5.76-3.32-13.21-7.6-16.59-16.41a21.71,21.71,0,0,1-1.11-13.37,20,20,0,0,1,9.77-12.68c7.88-4.12,15.53-1,16.57-.58a33.66,33.66,0,0,1,4.61-8,24.06,24.06,0,0,1,7.36-6.83,18,18,0,0,1,8.48-2.66,17.37,17.37,0,0,1,11,3.44c.88.67,3.54,2.84,5.91,8.27a39.27,39.27,0,0,1,2.37,21.65s-.76,10.53-9.09,28.72a7.69,7.69,0,0,1-2.76,3.39A7.2,7.2,0,0,1,1850,947.51Z" transform="translate(-1591.13 -769.99)"/><ellipse class="cls-1" cx="1783.4" cy="906.66" rx="10.73" ry="13.41" transform="translate(-1281.86 1489.27) rotate(-69.49)"/><ellipse class="cls-1" cx="1857.94" cy="861.24" rx="10.73" ry="13.41" transform="translate(-1655.6 -614.44) rotate(-4.71)"/><ellipse class="cls-1" cx="1826.87" cy="863.29" rx="13.29" ry="16.88" transform="translate(-1784.8 104.38) rotate(-25.61)"/><ellipse class="cls-1" cx="1797.25" cy="879.86" rx="13.29" ry="16.88" transform="translate(-1751.57 524.24) rotate(-38.04)"/><path class="cls-1" d="M1802.68,1052.42c-10.6.79-17.47-3.17-17.47-3.17-3-1.75-7-4-8.78-8.68a11.46,11.46,0,0,1-.59-7.07,10.13,10.13,0,0,1,13.94-7,17.77,17.77,0,0,1,2.44-4.25,12.77,12.77,0,0,1,3.89-3.62,9.56,9.56,0,0,1,4.49-1.4,9.15,9.15,0,0,1,5.8,1.82,10.41,10.41,0,0,1,3.13,4.38,20.81,20.81,0,0,1,1.26,11.45s-.41,5.57-4.82,15.2a4.11,4.11,0,0,1-1.45,1.79A3.88,3.88,0,0,1,1802.68,1052.42Z" transform="translate(-1591.13 -769.99)"/><ellipse class="cls-1" cx="1767.42" cy="1030.81" rx="5.68" ry="7.1" transform="translate(-1408.51 1554.94) rotate(-69.49)"/><ellipse class="cls-1" cx="1806.31" cy="1009.86" rx="5.68" ry="7.1" transform="translate(-1715.95 -503.99) rotate(-8.14)"/><ellipse class="cls-1" cx="1790.42" cy="1007.86" rx="7.03" ry="8.93" transform="translate(-1850.87 102.83) rotate(-25.61)"/><ellipse class="cls-1" cx="1774.75" cy="1016.62" rx="7.03" ry="8.93" transform="translate(-1840.62 539.42) rotate(-38.04)"/></svg>