<svg id="Capa_2" data-name="Capa 2" xmlns="http://www.w3.org/2000/svg" viewBox="0 0 277.56 282.54"><defs><style>.cls-1{fill:#dbf6ff;}</style></defs><title>fondo-4</title><path class="cls-1" d="M1721.23,892.25c-27.6,2-45.49-8.26-45.49-8.26-7.94-4.57-18.19-10.47-22.85-22.6a29.8,29.8,0,0,1-1.53-18.41c.7-2.74,3.61-12.32,13.46-17.47,10.85-5.68,21.39-1.42,22.83-.81a46,46,0,0,1,6.35-11.06c2.25-2.89,5.07-6.53,10.14-9.41a24.76,24.76,0,0,1,11.67-3.67,24.12,24.12,0,0,1,15.12,4.75c1.22.93,4.88,3.91,8.14,11.39,5,11.54,4.35,22.92,3.27,29.82,0,0-1,14.51-12.53,39.57a10.58,10.58,0,0,1-3.8,4.67A9.87,9.87,0,0,1,1721.23,892.25Z" transform="translate(-1611.36 -753.81)"/><ellipse class="cls-1" cx="1629.43" cy="835.98" rx="14.78" ry="18.48" transform="translate(-1335.9 1315.33) rotate(-69.49)"/><ellipse class="cls-1" cx="1730.67" cy="781.43" rx="14.78" ry="18.48" transform="matrix(0.99, -0.14, 0.14, 0.99, -1704.59, -500.82)"/><ellipse class="cls-1" cx="1689.32" cy="776.22" rx="18.31" ry="23.25" transform="translate(-1780.91 52.56) rotate(-25.61)"/><ellipse class="cls-1" cx="1648.5" cy="799.05" rx="18.31" ry="23.25" transform="translate(-1753.6 431.61) rotate(-38.04)"/><path class="cls-1" d="M1870.27,931.33c-20,1.48-33-6-33-6-5.77-3.32-13.21-7.6-16.59-16.41a21.71,21.71,0,0,1-1.11-13.37,19.94,19.94,0,0,1,9.77-12.68c7.88-4.12,15.53-1,16.57-.58a33.46,33.46,0,0,1,4.61-8,24.2,24.2,0,0,1,7.36-6.84,18.2,18.2,0,0,1,8.48-2.66,17.47,17.47,0,0,1,11,3.45c.88.67,3.54,2.84,5.91,8.27a39.26,39.26,0,0,1,2.37,21.65s-.76,10.53-9.09,28.72a7.69,7.69,0,0,1-2.76,3.39A7.2,7.2,0,0,1,1870.27,931.33Z" transform="translate(-1611.36 -753.81)"/><ellipse class="cls-1" cx="1803.63" cy="890.48" rx="10.73" ry="13.41" transform="translate(-1273.79 1513.89) rotate(-69.49)"/><ellipse class="cls-1" cx="1878.17" cy="845.06" rx="10.73" ry="13.41" transform="translate(-1674.43 -596.65) rotate(-4.71)"/><ellipse class="cls-1" cx="1847.1" cy="847.1" rx="13.29" ry="16.88" transform="translate(-1796.05 127.72) rotate(-25.61)"/><ellipse class="cls-1" cx="1817.48" cy="863.67" rx="13.29" ry="16.88" transform="translate(-1757.53 549.45) rotate(-38.04)"/><path class="cls-1" d="M1822.91,1036.24c-10.6.79-17.47-3.17-17.47-3.17-3-1.76-7-4-8.78-8.68a11.47,11.47,0,0,1-.59-7.07,10.13,10.13,0,0,1,13.94-7,17.44,17.44,0,0,1,2.44-4.25,12.77,12.77,0,0,1,3.89-3.62,9.56,9.56,0,0,1,4.49-1.4,9.16,9.16,0,0,1,5.8,1.82,10.35,10.35,0,0,1,3.13,4.37,20.85,20.85,0,0,1,1.26,11.46s-.41,5.57-4.82,15.19a4.07,4.07,0,0,1-1.45,1.8A3.88,3.88,0,0,1,1822.91,1036.24Z" transform="translate(-1611.36 -753.81)"/><ellipse class="cls-1" cx="1787.65" cy="1014.63" rx="5.68" ry="7.1" transform="translate(-1400.45 1579.56) rotate(-69.49)"/><ellipse class="cls-1" cx="1826.54" cy="993.68" rx="5.68" ry="7.1" transform="translate(-1733.68 -485.1) rotate(-8.14)"/><ellipse class="cls-1" cx="1810.65" cy="991.68" rx="7.03" ry="8.93" transform="translate(-1862.12 126.16) rotate(-25.61)"/><ellipse class="cls-1" cx="1794.98" cy="1000.44" rx="7.03" ry="8.93" transform="translate(-1846.58 564.63) rotate(-38.04)"/></svg>