<svg id="Capa_1" data-name="Capa 1" xmlns="http://www.w3.org/2000/svg" viewBox="0 0 1100.6 1134.51"><defs><style>.cls-1{fill:#dbf6ff;}</style></defs><title>fondo-2</title><path class="cls-1" d="M865.18,1011.68c15.33,17.3,31.67,25.46,47.31,33.09,28.54,13.91,52.47,18.94,73,22.73,43.59,8.07,84.41,8.36,121.47,4.81,12.6-1.2,23.67-2.13,132.43-29.24,55.13-13.74,80.27-22,125.57-26.95a569.29,569.29,0,0,1,92.22-2.48c22.84,1.26,65.64,5.06,157.58,31.52,41,11.79,83.27,26.28,166.2,54.78,62.09,21.33,130.83,45.2,141.68,30.26,4.15-5.72.19-12.58-2.68-36-3.84-31.33-.76-51.81-.2-65.25.59-14.2,1.33-85.49,2.78-228.06,1-95.41-1.67-80.5-2.24-252.24-.08-23.91,0-7.23.18-172.81.13-142.65.08-186.59,0-225.08-.17-64.69-.47-117.18-.7-150.43h-832c-22.69,17.61-55.47,48.52-77.08,95.82-31.47,68.87-20.75,132-16.92,152.77,10.28,55.83,40.29,114.59,39.93,114.7a5.2,5.2,0,0,1-.43-.89s32,67.62,12,110.48c-6.77,14.52-11.19,26.75-25,49.56A498.23,498.23,0,0,1,975.6,585c-21.55,25.88-26.09,27.12-52.36,55.89-33.08,36.23-49.62,54.35-64.78,81.39A270.46,270.46,0,0,0,841.67,759c-8.35,22.41-18.5,58.56-17.73,105.91a292.61,292.61,0,0,0,3.17,52.49c2.42,15.91,5.11,32.91,13.83,53.51C845.57,981.81,851.85,996.65,865.18,1011.68Z" transform="translate(-823.82 -0.35)"/></svg>