<?xml version="1.0" encoding="utf-8"?>
<!-- Generator: Adobe Illustrator 24.0.2, SVG Export Plug-In . SVG Version: 6.00 Build 0)  -->
<svg version="1.1" id="Capa_1" xmlns="http://www.w3.org/2000/svg" xmlns:xlink="http://www.w3.org/1999/xlink" x="0px" y="0px"
	 viewBox="0 0 30 30" style="enable-background:new 0 0 30 30;" xml:space="preserve">
<style type="text/css">
	.st0{fill:#efadad;}
	.st1{fill:none;stroke:#000000;stroke-width:0.2677;stroke-linecap:round;stroke-miterlimit:10;}
	.st2{fill:#FFFFFF;stroke:#000000;stroke-width:0.3346;stroke-linecap:round;stroke-miterlimit:10;}
</style>
<path class="st0" d="M15.94,22c-1.07-0.4-4.25-1.73-5.71-4.98c-0.45-1.01-1.31-2.92-0.37-4.64c0.71-1.32,2.37-2.36,3.89-2.06
	c0.95,0.19,1.59,0.83,1.7,0.95c0.79,0.82,1.2,2.17,1.2,2.17c0,0,0.46-1.39,1.28-2.11c0.84-0.75,1.97-0.74,2.19-0.74
	c1.59,0.04,2.95,1.29,3.36,2.64c0.47,1.56-0.43,2.95-1.15,4.05C20.46,20.16,17.59,21.44,15.94,22z"/>
<path class="st1" d="M20.27,20.05c-0.17-0.13-0.68-0.53-0.78-1.18c-0.03-0.2-0.09-0.59,0.17-0.85c0.19-0.2,0.54-0.3,0.8-0.17
	c0.16,0.08,0.24,0.23,0.26,0.26c0.1,0.19,0.11,0.45,0.11,0.45c0,0,0.15-0.23,0.34-0.32c0.19-0.09,0.39-0.03,0.43-0.02
	c0.28,0.09,0.47,0.38,0.47,0.65c0.01,0.3-0.23,0.51-0.41,0.67C21.18,19.94,20.59,20.03,20.27,20.05z"/>
<line class="st2" x1="6.9" y1="9.97" x2="9.36" y2="11.45"/>
<line class="st2" x1="8.62" y1="8.14" x2="10.2" y2="10.65"/>
<line class="st2" x1="6" y1="12.19" x2="8.68" y2="12.6"/>
</svg>
